<svg width="138" height="30" viewBox="0 0 138 30" fill="none" xmlns="http://www.w3.org/2000/svg">
<path d="M0 12.5596C0 6.46828 5.10649 1.5073 11.2051 1.5073C14.0347 1.46051 16.7642 2.55807 18.7765 4.552L16.6379 6.68255C15.1811 5.27622 13.2296 4.50148 11.206 4.52674C6.76439 4.52674 3.29243 8.10572 3.29243 12.5596C3.29243 17.0134 6.75785 20.5905 11.206 20.5905C14.087 20.5905 15.7272 19.4321 16.7791 18.3795C17.6413 17.5159 18.2051 16.2742 18.4221 14.5891H11.207V11.5612H21.3564C21.4714 12.1862 21.5256 12.8206 21.5181 13.4559C21.5181 15.7194 20.9 18.5217 18.9064 20.5175C16.9633 22.5302 14.4863 23.5978 11.207 23.5978C5.10649 23.5987 0 18.6509 0 12.5596Z" fill="white"/>
<path d="M29.7109 20.8101C27.5574 20.8101 25.7004 19.0314 25.7004 16.4985C25.7004 13.9656 27.5574 12.186 29.7109 12.186C31.8644 12.186 33.7215 13.9375 33.7215 16.4985C33.7215 19.0595 31.8644 20.8129 29.7109 20.8129V20.8111M29.7109 9.38452C25.7808 9.38452 22.5781 12.3768 22.5781 16.4994C22.5781 20.6221 25.7808 23.6059 29.7109 23.6059C33.6411 23.6059 36.8447 20.5865 36.8447 16.491C36.8447 12.3955 33.642 9.38452 29.7109 9.38452Z" fill="white"/>
<path d="M45.2734 20.8101C43.1199 20.8101 41.2628 19.0314 41.2628 16.4985C41.2628 13.9656 43.1199 12.186 45.2734 12.186C47.4269 12.186 49.284 13.9375 49.284 16.4985C49.284 19.0595 47.4269 20.8129 45.2734 20.8129V20.8111M45.2734 9.38452C41.3432 9.38452 38.1396 12.3768 38.1396 16.4994C38.1396 20.6221 41.3423 23.6059 45.2734 23.6059C49.2045 23.6059 52.4062 20.5865 52.4062 16.491C52.4062 12.3955 49.2036 9.38452 45.2734 9.38452Z" fill="white"/>
<path d="M72.6134 2.26343H69.4902V23.1778H72.6134V2.26343Z" fill="white"/>
<path d="M72.6134 2.26343H69.4902V23.1778H72.6134V2.26343Z" fill="white"/>
<path d="M80.9315 12.1298C82.1705 12.1298 83.2197 12.7492 83.5685 13.639L77.2155 16.2795C77.1332 13.5296 79.3419 12.1298 80.9296 12.1298H80.9315ZM81.1737 20.8092C79.5859 20.8092 78.4545 20.0803 77.7289 18.6533L87.2321 14.7179L86.9123 13.916C86.3195 12.3263 84.5166 9.38916 80.8287 9.38916C77.1407 9.38916 74.126 12.2739 74.126 16.5041C74.126 20.492 77.1416 23.619 81.1793 23.619C83.5582 23.6312 85.7837 22.4447 87.1012 20.4611L84.6784 18.8442C83.8649 20.0232 82.7605 20.811 81.1728 20.811L81.1737 20.8092Z" fill="white"/>
<path d="M60.8 20.8067C58.6465 20.8067 56.8418 18.9999 56.8418 16.5222C56.8418 14.0445 58.6465 12.1825 60.8 12.1825C62.9535 12.1825 64.5852 14.0146 64.5852 16.5222C64.5852 19.0299 62.9217 20.8067 60.7953 20.8067H60.8ZM64.3748 9.80964V10.9652H64.2673C63.5669 10.1231 62.2213 9.37549 60.526 9.37549C56.9717 9.37549 53.7148 12.5025 53.7148 16.5175C53.7148 20.5326 56.9727 23.5988 60.526 23.5988C62.2213 23.5988 63.5669 22.8446 64.2673 21.9819H64.3748V23.0056C64.3748 25.7275 62.9217 27.1824 60.5896 27.1824C58.6783 27.1824 57.4944 25.8079 57.0148 24.6561L54.2955 25.7892C55.3428 28.3502 57.8404 30.0176 60.6045 29.9998C64.2654 29.9998 67.3615 27.844 67.3615 22.5882V9.80964H64.3748Z" fill="white"/>
<path d="M107.052 2.23608H96.5117V23.2131H107.052V2.23608Z" fill="white"/>
<path d="M126.601 23.5427C132.574 23.5427 137.416 18.6979 137.416 12.7215C137.416 6.74519 132.574 1.90039 126.601 1.90039C120.629 1.90039 115.787 6.74519 115.787 12.7215C115.787 18.6979 120.629 23.5427 126.601 23.5427Z" fill="white"/>
<path d="M110.507 25.4449H108.475L114.257 0H116.289L110.507 25.4449Z" fill="white"/>
</svg>
